<svg width="32" height="32" xmlns="http://www.w3.org/2000/svg">

 <g>
  <title>background</title>
  <rect fill="none" id="canvas_background" height="402" width="582" y="-1" x="-1"/>
 </g>
 <g>
  <title>Layer 1</title>
  <path id="svg_1" fill="#414752" d="m23.247,21.927l0,-5.36c0,-2.872 -1.533,-4.208 -3.577,-4.208c-1.649,0 -2.388,0.907 -2.8,1.544l0,-1.324l-3.107,0c0.041,0.877 0,9.348 0,9.348l3.107,0l0,-5.221c0,-0.279 0.02,-0.558 0.103,-0.757c0.224,-0.558 0.735,-1.136 1.593,-1.136c1.125,0 1.574,0.857 1.574,2.113l0,5.001l3.107,0l0,0zm-12.757,-10.624c1.083,0 1.758,-0.718 1.758,-1.616c-0.02,-0.917 -0.675,-1.614 -1.738,-1.614s-1.757,0.697 -1.757,1.614c0,0.897 0.675,1.616 1.717,1.616l0.02,0zm1.553,10.624l0,-9.348l-3.106,0l0,9.348l3.106,0z"/>
  <path id="svg_7" fill="#414752" d="m16,1c8.271,0 15,6.729 15,15s-6.729,15 -15,15s-15,-6.729 -15,-15s6.729,-15 15,-15m0,-1c-8.837,0 -16,7.163 -16,16s7.164,16 16,16s16,-7.164 16,-16s-7.164,-16 -16,-16l0,0z"/>
 </g>
</svg>