<svg width="24" height="24" xmlns="http://www.w3.org/2000/svg">
 <defs>
  <linearGradient y2="Infinity" y1="Infinity" x2="Infinity" x1="Infinity" id="SVGID_1_">
   <stop stop-color="#FFFFFF" stop-opacity="0.2" offset="0"/>
   <stop stop-color="#FFFFFF" stop-opacity="0" offset="1"/>
  </linearGradient>
 </defs>
 <g>
  <title>background</title>
  <rect fill="none" id="canvas_background" height="402" width="582" y="-1" x="-1"/>
 </g>
 <g>
  <title>Layer 1</title>
  <path id="svg_2" fill="#313C42" d="m22.88672,6.48168l-8.77734,-5.85442c-1.25293,-0.83635 -2.96583,-0.83635 -4.21875,0l-8.77735,5.85442c-0.69726,0.46507 -1.11328,1.24279 -1.11328,2.08109l0,6.86273c0,0.8383 0.41602,1.61602 1.11328,2.0811l8.77735,5.85442c0.62646,0.41817 1.35595,0.63898 2.10937,0.63898s1.48291,-0.22081 2.10938,-0.63898l8.77734,-5.85442c0.69726,-0.46508 1.11328,-1.2428 1.11328,-2.0811l0,-6.86273c0,-0.8383 -0.41602,-1.61602 -1.11328,-2.08109zm-9.88672,-2.98168c0,-0.18311 0.1001,-0.35107 0.26025,-0.43896c0.16114,-0.08741 0.35596,-0.08106 0.51026,0.01855l7,4.5c0.14404,0.09229 0.23047,0.25244 0.22949,0.42383c-0.00098,0.1709 -0.08984,0.32959 -0.23486,0.42041l-4,2.5c-0.08106,0.05078 -0.17334,0.07617 -0.26514,0.07617c-0.09668,0 -0.19336,-0.02783 -0.27734,-0.08398l-3,-2c-0.13916,-0.09278 -0.22266,-0.24903 -0.22266,-0.41602l0,-5zm-9.77051,4.07959l7,-4.5c0.15283,-0.09961 0.34912,-0.10596 0.51026,-0.01855c0.16015,0.08789 0.26025,0.25585 0.26025,0.43896l0,5c0,0.16699 -0.0835,0.32324 -0.22266,0.41602l-3,2c-0.08398,0.05615 -0.18066,0.08398 -0.27734,0.08398c-0.0918,0 -0.18408,-0.02539 -0.26514,-0.07617l-4,-2.5c-0.14502,-0.09082 -0.23388,-0.24951 -0.23486,-0.42041c-0.00098,-0.17139 0.08545,-0.33154 0.22949,-0.42383zm-0.72949,6.42041c-0.08496,0 -0.16992,-0.02148 -0.24658,-0.06494c-0.15674,-0.08887 -0.25342,-0.25488 -0.25342,-0.43506l0,-3c0,-0.18018 0.09668,-0.34619 0.25342,-0.43506s0.34863,-0.08594 0.5039,0.00635l2.5,1.5c0.15039,0.09033 0.24268,0.25293 0.24268,0.42871s-0.09229,0.33838 -0.24268,0.42871l-2.5,1.5c-0.0791,0.04736 -0.16845,0.07129 -0.25732,0.07129zm8.5,6.5c0,0.18311 -0.1001,0.35107 -0.26025,0.43896c-0.0752,0.04053 -0.15723,0.06104 -0.23975,0.06104c-0.09424,0 -0.18848,-0.02637 -0.27051,-0.07959l-7,-4.5c-0.14404,-0.09228 -0.23047,-0.25244 -0.22949,-0.42383c0.00098,-0.1709 0.08984,-0.32959 0.23486,-0.42041l4,-2.5c0.16602,-0.10498 0.37891,-0.10254 0.54248,0.00781l3,2c0.13916,0.09278 0.22266,0.24903 0.22266,0.41602l0,5zm1,-6c-0.09668,0 -0.19336,-0.02783 -0.27734,-0.08398l-3,-2c-0.13916,-0.09278 -0.22266,-0.24903 -0.22266,-0.41602s0.0835,-0.32324 0.22266,-0.41602l3,-2c0.16797,-0.1123 0.38672,-0.1123 0.55468,0l3,2c0.13916,0.09278 0.22266,0.24903 0.22266,0.41602s-0.0835,0.32324 -0.22266,0.41602l-3,2c-0.08398,0.05615 -0.18066,0.08398 -0.27734,0.08398zm8.77051,1.92041l-7,4.5c-0.08203,0.05322 -0.17627,0.07959 -0.27051,0.07959c-0.08252,0 -0.16455,-0.02051 -0.23975,-0.06104c-0.16015,-0.08789 -0.26025,-0.25585 -0.26025,-0.43896l0,-5c0,-0.16699 0.0835,-0.32324 0.22266,-0.41602l3,-2c0.16455,-0.10986 0.37646,-0.11181 0.54248,-0.00781l4,2.5c0.14502,0.09082 0.23388,0.24951 0.23486,0.42041c0.00098,0.17139 -0.08545,0.33155 -0.22949,0.42383zm1.22949,-2.92041c0,0.18018 -0.09668,0.34619 -0.25342,0.43506c-0.07666,0.04346 -0.16162,0.06494 -0.24658,0.06494c-0.08887,0 -0.17822,-0.02393 -0.25732,-0.07129l-2.5,-1.5c-0.15039,-0.09033 -0.24268,-0.25293 -0.24268,-0.42871s0.09229,-0.33838 0.24268,-0.42871l2.5,-1.5c0.15478,-0.09229 0.34765,-0.09522 0.5039,-0.00635c0.15674,0.08887 0.25342,0.25488 0.25342,0.43506l0,3z"/>
  <path id="svg_3" fill="url(#SVGID_1_)" d="m22.88672,6.48168l-8.77734,-5.85442c-1.25293,-0.83635 -2.96583,-0.83635 -4.21875,0l-8.77735,5.85442c-0.69726,0.46507 -1.11328,1.24279 -1.11328,2.08109l0,6.86273c0,0.8383 0.41602,1.61602 1.11328,2.0811l8.77735,5.85442c0.62646,0.41817 1.35595,0.63898 2.10937,0.63898s1.48291,-0.22081 2.10938,-0.63898l8.77734,-5.85442c0.69726,-0.46508 1.11328,-1.2428 1.11328,-2.0811l0,-6.86273c0,-0.8383 -0.41602,-1.61602 -1.11328,-2.08109zm-9.88672,-2.98168c0,-0.18311 0.1001,-0.35107 0.26025,-0.43896c0.16114,-0.08741 0.35596,-0.08106 0.51026,0.01855l7,4.5c0.14404,0.09229 0.23047,0.25244 0.22949,0.42383c-0.00098,0.1709 -0.08984,0.32959 -0.23486,0.42041l-4,2.5c-0.08106,0.05078 -0.17334,0.07617 -0.26514,0.07617c-0.09668,0 -0.19336,-0.02783 -0.27734,-0.08398l-3,-2c-0.13916,-0.09278 -0.22266,-0.24903 -0.22266,-0.41602l0,-5zm-9.77051,4.07959l7,-4.5c0.15283,-0.09961 0.34912,-0.10596 0.51026,-0.01855c0.16015,0.08789 0.26025,0.25585 0.26025,0.43896l0,5c0,0.16699 -0.0835,0.32324 -0.22266,0.41602l-3,2c-0.08398,0.05615 -0.18066,0.08398 -0.27734,0.08398c-0.0918,0 -0.18408,-0.02539 -0.26514,-0.07617l-4,-2.5c-0.14502,-0.09082 -0.23388,-0.24951 -0.23486,-0.42041c-0.00098,-0.17139 0.08545,-0.33154 0.22949,-0.42383zm-0.72949,6.42041c-0.08496,0 -0.16992,-0.02148 -0.24658,-0.06494c-0.15674,-0.08887 -0.25342,-0.25488 -0.25342,-0.43506l0,-3c0,-0.18018 0.09668,-0.34619 0.25342,-0.43506s0.34863,-0.08594 0.5039,0.00635l2.5,1.5c0.15039,0.09033 0.24268,0.25293 0.24268,0.42871s-0.09229,0.33838 -0.24268,0.42871l-2.5,1.5c-0.0791,0.04736 -0.16845,0.07129 -0.25732,0.07129zm8.5,6.5c0,0.18311 -0.1001,0.35107 -0.26025,0.43896c-0.0752,0.04053 -0.15723,0.06104 -0.23975,0.06104c-0.09424,0 -0.18848,-0.02637 -0.27051,-0.07959l-7,-4.5c-0.14404,-0.09228 -0.23047,-0.25244 -0.22949,-0.42383c0.00098,-0.1709 0.08984,-0.32959 0.23486,-0.42041l4,-2.5c0.16602,-0.10498 0.37891,-0.10254 0.54248,0.00781l3,2c0.13916,0.09278 0.22266,0.24903 0.22266,0.41602l0,5zm1,-6c-0.09668,0 -0.19336,-0.02783 -0.27734,-0.08398l-3,-2c-0.13916,-0.09278 -0.22266,-0.24903 -0.22266,-0.41602s0.0835,-0.32324 0.22266,-0.41602l3,-2c0.16797,-0.1123 0.38672,-0.1123 0.55468,0l3,2c0.13916,0.09278 0.22266,0.24903 0.22266,0.41602s-0.0835,0.32324 -0.22266,0.41602l-3,2c-0.08398,0.05615 -0.18066,0.08398 -0.27734,0.08398zm8.77051,1.92041l-7,4.5c-0.08203,0.05322 -0.17627,0.07959 -0.27051,0.07959c-0.08252,0 -0.16455,-0.02051 -0.23975,-0.06104c-0.16015,-0.08789 -0.26025,-0.25585 -0.26025,-0.43896l0,-5c0,-0.16699 0.0835,-0.32324 0.22266,-0.41602l3,-2c0.16455,-0.10986 0.37646,-0.11181 0.54248,-0.00781l4,2.5c0.14502,0.09082 0.23388,0.24951 0.23486,0.42041c0.00098,0.17139 -0.08545,0.33155 -0.22949,0.42383zm1.22949,-2.92041c0,0.18018 -0.09668,0.34619 -0.25342,0.43506c-0.07666,0.04346 -0.16162,0.06494 -0.24658,0.06494c-0.08887,0 -0.17822,-0.02393 -0.25732,-0.07129l-2.5,-1.5c-0.15039,-0.09033 -0.24268,-0.25293 -0.24268,-0.42871s0.09229,-0.33838 0.24268,-0.42871l2.5,-1.5c0.15478,-0.09229 0.34765,-0.09522 0.5039,-0.00635c0.15674,0.08887 0.25342,0.25488 0.25342,0.43506l0,3z"/>
 </g>
</svg>