<svg enable-background="new 0 0 140 140" height="512" viewBox="0 0 140 140" width="512" xmlns="http://www.w3.org/2000/svg"><circle cx="70" cy="70" fill="#509fd7" r="64"/><path d="m132.5400391 56.4101562c.9499511 4.3798829 1.4599609 8.9199219 1.4599609 13.5898438 0 35.3500977-28.6500244 64-64 64-3.3900146 0-6.7199707-.2700195-9.9699707-.7802734l-31.9300537-31.9296875 3.5899658-1.4399414 3.7399902-1.4902344h6.1601562v-65.8901367h5.0998535v-5.0996094h56.8100587z" opacity=".1"/><path d="m35.430088 98.356041h69.179451v2.934747h-69.179451z" fill="#304651"/><path d="m46.687061 27.374296h56.811924v79.787331h-56.811924z" fill="#dad7dc"/><path d="m41.59404 32.46732h56.811924v79.787331h-56.811924z" fill="#e6e7e8"/><path d="m35.4301758 98.355957v2.9350586 2.9345703h69.1794433v-2.9345703-2.9350586z" fill="#344e5c"/><path d="m35.430088 98.356041h69.179451v2.934747h-69.179451z" fill="#304651"/><path d="m104.381027 98.355095h2.169503v5.873421h-2.169503z" fill="#ececec"/><path d="m108.9623642 98.3550949h-2.6418533v5.8734207h2.6418533c1.6219254 0 2.9367142-1.3148193 2.9367142-2.9367065 0-1.6218949-1.3147888-2.9367142-2.9367142-2.9367142z" fill="#f37735"/><path d="m28.1009235 101.2907867 7.3291645 2.9347458v-5.8694915z" fill="#ffd25a"/><path d="m31.6902676 99.853508-3.5893193 1.4372253 3.5893193 1.437294z" fill="#304651"/><circle cx="70" cy="50.732" fill="#d49145" r="14.018"/><path d="m66.355896 56.4436531c.2828445 1.7589722 1.8069687 3.1084251 3.6444626 3.1084251 1.8375092 0 3.3616562-1.349453 3.6444778-3.1084709-.6487198-.4514351-.6194992-1.072258-.6194992-1.072258v-1.9226913h-6.0499191l-.0150604 1.9207916s.0442962.6227455-.6044617 1.0742035z" fill="#d6b24e"/><path d="m74.7680435 45.8992996c-.0010376 0-.002037.3297958-.0030365.3297958-.0643845-2.6222878-2.182579-5.0768661-4.7646179-5.0768661s-4.7002716 2.4545784-4.7646179 5.0768661c-.0009995 0-.0019989-.3297958-.0030365-.3297958-.5264359 0-.9531631 1.1895561-.9531631 2.2506676 0 1.0611153.4267273 1.921196.9531631 1.921196v.0685883c0 1.3107452 1.1418457 2.9691963 2.3079147 4.3210297 1.300148 1.5072975 3.6192932 1.5072975 4.9194412 0 1.1661072-1.3518333 2.3079529-3.0102844 2.3079529-4.3210297v-.0685883c.5263977 0 .9531631-.8600807.9531631-1.921196.0000001-1.0611115-.4267654-2.2506676-.9531631-2.2506676z" fill="#ffd25a"/><path d="m73.7937546 58.2196045-.8467712 2.486969-.0066757.0199814-1.3467865 3.9271088c-.1867065.0266571-.3733749.0400009-.5667572.0533524-.0266571.0066757-.0533066.0066757-.0800018 0-.1533432.0199814-.3066788.0266571-.4600525.0266571l-.1866684-.4200516-.0466766-4.76717-.0200195-1.6135406.6334076-.6467171v-.0066757l.3266983-.3333702 1.3068237.6400871h.0066757l.586731.2866936.440033.2199936z" fill="#e6e7e8"/><path d="m81.7079544 58.4329681c-1.8335342 2.7869682-4.6405258 4.8805428-7.9342194 5.8006439-.5733871.1600113-1.1668015.2866974-1.7668381.3666992l.2266693-.7667236.7067413-3.1070328.0066757-.0199814.586731-2.6136513.1600113-.6667404 1.1801453-1.3201294c0 .0000001 4.6605073 1.026764 6.8340836 2.3269158z" fill="#344e5c"/><path d="m73.0340729 55.1601181-3.0368576 1.5814858 2.3688507 1.4794387z" fill="#dad7dc"/><path d="m69.7599869 57.9329109-.0200272 1.6068687-.0466766 4.7738419-.1866608.4200516c-.1533432 0-.3067169-.0066757-.4600525-.0266571-.0266571.0066757-.0533524.0066757-.0800095-.0066757-.1933823-.0066757-.3867188-.0200195-.5733871-.0466766l-1.3401566-3.9404144-.0066681-.0200233-.8467789-2.4736214.2600403-.1266823.4467087-.2199936.5800552-.2866936h.0066757l1.3068237-.6400871.3266983.3400459z" fill="#e6e7e8"/><path d="m67.9864349 64.6003113c-.60672-.0800018-1.1934509-.2066879-1.7668381-.3666992-3.2937012-.9201012-6.094017-3.0070038-7.9275513-5.793972 2.1735802-1.3134575 6.8274078-2.3335876 6.8274078-2.3335876l1.1801453 1.3201294.1600113.6667404.5867386 2.6003036.0066681.0200233.706749 3.1203384z" fill="#344e5c"/><path d="m66.9603577 55.1601181 3.0368576 1.5814858-2.3688431 1.4794387z" fill="#dad7dc"/><path d="m71.0067825 64.4469757.0199814.2600403c-.0266571.0066757-.0533066.0066757-.0800018 0-.1533432.0199814-.3066788.0266571-.4600525.0266571-.1600113.0133438-.3200226.0133438-.4867096.0133438s-.3333664 0-.4933777-.0133438c-.1533432 0-.3067169-.0066757-.4600525-.0266571-.0266571.0066757-.0533524.0066757-.0800095-.0066757l.0199814-.2533646.3933945-4.9472008.0733337-.9734535-.5667114-1.0934639.2400131-.1466637.8734284-.5400581.8667526.5333824v.0066757l.2400208.1466637-.5667191 1.0934639.0800095.9734535z" fill="#f37735"/><path d="m69.0465698 64.707016c-.0266571.0066757-.0533524.0066757-.0800095-.0066757-.1933823-.0066757-.3867188-.0200195-.5733871-.0466766-.1400299-.0133438-.2733841-.0333252-.4067383-.0533524-.60672-.0800018-1.1934509-.2066879-1.7668381-.3666992l-1.566864-3.0336571 1.3601761-.8000946-1.5535202-.8534088.6600647-3.4403992 1.84021-.9467621h.0066757v.0066757l.0066757.0266533.5200348 2.3936157.1400299.6267357.1200104.5733871 1.2334518 5.6606178z" fill="#293b44"/><path d="m73.980423 60.3998604 1.3601685.8000946-1.5668564 3.0336571c-.5733871.1600113-1.1668015.2866974-1.7668381.3666992-.1400299.0266953-.2733917.0400085-.4133759.0533524-.1867065.0266571-.3733749.0400009-.5667572.0533524-.0266571.0066757-.0533066.0066757-.0800018 0l.0600204-.2600403 1.2267838-5.6539421.1266785-.5800629.1400299-.6267357.5267105-2.420269v-.0066757h.0066757l1.84021.9467621.6600647 3.4403992z" fill="#293b44"/><path d="m64.3993912 47.3512306c.1798096.6832657.556778 1.2071495.6059723 2.3709755h.3061829c-.0830841-.4984627-.203743-1.7487793.2037506-3.6407967 0 0 6.4970779.52705 7.8113937-2.5781631 0 0 1.0004807-.1154213 1.1159439 1.616169.1154251 1.7315903.0769348 2.2318153.4232483 2.5011902l-.1722565 2.1016006h.217659c.1121826-.5857506.4178467-2.0410919.7241898-2.2555542 0 0 1.0004883-4.8484268-1.1159058-5.7719727 0 0-.7311096-3.1938095-5.6565094-2.0008888-4.9254417 1.1928444-4.7330399 4.579052-4.7330399 4.579052s.076973 2.3473167.2693711 3.0783882z" fill="#344e5c"/><g fill="#dad7dc"><path d="m46.510784 69.185165h46.978432v1.717423h-46.978432z"/><path d="m46.510784 74.332756h46.978432v1.717423h-46.978432z"/><path d="m46.510784 79.480354h46.978432v1.717423h-46.978432z"/><path d="m46.510784 84.627953h46.978432v1.717423h-46.978432z"/><path d="m58.245487 89.775551h23.509029v1.717423h-23.509029z"/></g></svg>