<?xml version="1.0" encoding="iso-8859-1"?>
<!-- Generator: Adobe Illustrator 19.0.0, SVG Export Plug-In . SVG Version: 6.00 Build 0)  -->
<svg version="1.1" id="Capa_1" xmlns="http://www.w3.org/2000/svg" xmlns:xlink="http://www.w3.org/1999/xlink" x="0px" y="0px"
	 viewBox="0 0 496 496" style="enable-background:new 0 0 496 496;" xml:space="preserve">
<path style="fill:#FFCB57;" d="M408,415.87c-12.424,0-23.704,4.76-32.224,12.504c0.136-1.488,0.224-2.984,0.224-4.504
	c0-26.512-21.488-48-48-48c-7.96,0-15.448,1.968-22.056,5.392c-8.464-11.488-20.264-20.336-33.944-25.2V311.87h-48v44.192
	c-13.688,4.872-25.48,13.712-33.944,25.2c-6.608-3.424-14.096-5.392-22.056-5.392c-26.512,0-48,21.488-48,48
	c0,1.52,0.088,3.016,0.224,4.504c-8.52-7.744-19.8-12.504-32.224-12.504c-26.512,0-48,21.488-48,48c0,8.752,2.384,16.936,6.472,24
	H449.52c4.096-7.064,6.48-15.248,6.48-24C456,437.358,434.512,415.87,408,415.87z"/>
<g>
	<polygon style="fill:#E56565;" points="272,263.87 256,263.87 256,203.182 248,195.182 240,203.182 240,263.87 224,263.87 
		224,196.558 248,172.558 272,196.558 	"/>
	<rect x="272" y="111.87" style="fill:#E56565;" width="24" height="16"/>
	<rect x="200" y="111.87" style="fill:#E56565;" width="24" height="16"/>
</g>
<g>
	<path style="fill:#3F3A34;" d="M122.6,271.87H176v-16h-53.4c-1.432,0-2.6-1.168-2.6-2.6c0-0.832,0.4-1.616,1.072-2.104L192,199.582
		v72.288h112v-72.288l70.928,51.584c0.672,0.488,1.072,1.272,1.072,2.104c0,1.432-1.168,2.6-2.6,2.6H320v16h53.4
		c10.256,0,18.6-8.344,18.6-18.6c0-5.928-2.864-11.552-7.656-15.04L304,179.798V67.75c0-14.96-5.824-29.016-16.4-39.6L267.312,7.87
		C257-2.45,239-2.45,228.688,7.87L208.4,28.158C197.824,38.734,192,52.798,192,67.75v112.04l-80.336,58.424
		c-4.8,3.496-7.664,9.12-7.664,15.056C104,263.526,112.344,271.87,122.6,271.87z M208,255.87v-160h80v160H208z M219.712,39.47
		L240,19.182c4.208-4.208,11.792-4.208,16,0l20.288,20.288C283.84,47.022,288,57.07,288,67.75v12.12h-80V67.75
		C208,57.07,212.16,47.022,219.712,39.47z"/>
	<polygon style="fill:#3F3A34;" points="200,287.87 200,319.87 296,319.87 296,287.87 280,287.87 280,303.87 256,303.87 256,287.87 
		240,287.87 240,303.87 216,303.87 216,287.87 	"/>
	<path style="fill:#3F3A34;" d="M461.576,479.87c1.56-5.184,2.424-10.56,2.424-16c0-30.88-25.12-56-56-56
		c-8.976,0-17.432,2.176-24.952,5.944c-4.76-26.088-27.608-45.944-55.048-45.944c-6.736,0-13.44,1.232-19.712,3.584
		c-7.656-8.808-17.24-16.008-28.288-20.84V335.87h-16v25.832l5.328,1.888c25.52,9.04,42.672,33.264,42.672,60.28h16
		c0-13.864-3.784-27.032-10.248-38.648c3.312-0.872,6.728-1.352,10.248-1.352c22.056,0,40,17.944,40,40
		c0,0.312-0.032,0.616-0.04,0.928c-9.856,10.096-15.96,23.88-15.96,39.072h16c0-22.056,17.944-40,40-40s40,17.944,40,40
		c0,5.504-1.168,10.952-3.392,16H51.344c-2.192-5.016-3.344-10.464-3.344-16c0-22.056,17.944-40,40-40
		c14.232,0,27.512,7.664,34.656,20.008l13.848-8.016c-2.36-4.08-5.24-7.76-8.464-11.056c-0.008-0.312-0.04-0.624-0.04-0.936
		c0-22.056,17.944-40,40-40c3.52,0,6.936,0.48,10.24,1.352C171.784,396.838,168,410.006,168,423.87
		c0,18.232,6.304,36.072,17.736,50.24l12.448-10.056C188.904,452.558,184,438.67,184,423.87c0-27.016,17.152-51.24,42.672-60.272
		l5.328-1.896V335.87h-16v14.744c-11.048,4.832-20.632,12.032-28.288,20.84c-6.272-2.352-12.976-3.584-19.712-3.584
		c-27.472,0-50.336,19.896-55.056,46.024C105.288,410.07,96.8,407.87,88,407.87c-30.88,0-56,25.12-56,56
		c0,5.456,0.848,10.832,2.392,16H0v16h496v-16H461.576z"/>
	<rect x="200" y="407.87" style="fill:#3F3A34;" width="16" height="16"/>
	<rect x="296" y="439.87" style="fill:#3F3A34;" width="16" height="16"/>
	<rect x="400" y="447.87" style="fill:#3F3A34;" width="16" height="16"/>
	<rect x="136" y="447.87" style="fill:#3F3A34;" width="16" height="16"/>
</g>
<g>
</g>
<g>
</g>
<g>
</g>
<g>
</g>
<g>
</g>
<g>
</g>
<g>
</g>
<g>
</g>
<g>
</g>
<g>
</g>
<g>
</g>
<g>
</g>
<g>
</g>
<g>
</g>
<g>
</g>
</svg>
